{
	"asset":{
		"version":"2.0",
		"generator":"Created using the official Cinema 4D glTF Exporter 1.000x287587"
	},
	"scenes":[{
		"nodes":[0]
	}],
	"nodes":[{
		"name":"10Re",
		"translation":[-100.032,
		193.778,
		1007.558],
		"rotation":[-0.101,
		-0.73,
		0.045,
		0.675],
		"scale":[1,
		1,
		1],
		"children":[1]
	},
	{
		"name":"Path 4.1",
		"translation":[-3.51,
		8.439,
		0.248],
		"rotation":[-0.101,
		-0.73,
		0.045,
		-0.675],
		"scale":[1,
		1,
		1],
		"mesh":0
	}],
	"meshes":[{
		"primitives":[{
			"attributes":{
				"POSITION":1,
				"NORMAL":2,
				"TEXCOORD_0":3
			},
			"indices":0,
			"material":0
		}]
	}],
	"accessors":[{
		"bufferView":0,
		"type":"SCALAR",
		"componentType":5123,
		"count":22116,
		"byteOffset":0,
		"min":[0],
		"max":[7403]
	},
	{
		"bufferView":1,
		"type":"VEC3",
		"componentType":5126,
		"count":7404,
		"byteOffset":0,
		"min":[-2.213,
		-7.817,
		-18.73],
		"max":[2.213,
		7.817,
		18.73]
	},
	{
		"bufferView":1,
		"type":"VEC3",
		"componentType":5126,
		"count":7404,
		"byteOffset":12,
		"min":[-0.994,
		-0.997,
		-0.996],
		"max":[0.994,
		0.997,
		0.996]
	},
	{
		"bufferView":1,
		"type":"VEC2",
		"componentType":5126,
		"count":7404,
		"byteOffset":24,
		"min":[0,
		0],
		"max":[1,
		1]
	}],
	"bufferViews":[{
		"buffer":0,
		"byteOffset":0,
		"byteLength":44232,
		"target":34963
	},
	{
		"buffer":0,
		"byteOffset":44232,
		"byteLength":236928,
		"target":34962,
		"byteStride":32
	}],
	"buffers":[{
		"uri":"data:application/octet-stream;base64,",
		"byteLength":281160
	}],
	"materials":[{
		"pbrMetallicRoughness":{
			"baseColorFactor":[0.939,
			1,
			0,
			0.03],
			"metallicFactor":0,
			"roughnessFactor":0
		},
		"emissiveFactor":[0,
		0,
		0],
		"alphaMode":"OPAQUE",
		"doubleSided":true,
		"name":"***Flourescent YGreen"
	}]
}