{
	"asset":{
		"version":"2.0",
		"generator":"Created using the official Cinema 4D glTF Exporter 1.000x287587"
	},
	"scenes":[{
		"nodes":[0]
	}],
	"nodes":[{
		"name":"10Re",
		"translation":[0,
		0,
		0],
		"rotation":[-0.101,
		-0.73,
		0.045,
		0.675],
		"scale":[1,
		1,
		1],
		"children":[1]
	},
	{
		"name":"Path 3",
		"translation":[-8.325,
		2.699,
		0.601],
		"rotation":[0,
		0,
		0,
		-1],
		"scale":[1,
		1,
		1],
		"mesh":0,
		"children":[2,
		3]
	},
	{
		"name":"Cap 1",
		"translation":[0,
		0,
		0],
		"rotation":[0,
		0,
		0,
		-1],
		"scale":[1,
		1,
		1],
		"mesh":1
	},
	{
		"name":"Cap 2",
		"translation":[0,
		0,
		0],
		"rotation":[0,
		0,
		0,
		-1],
		"scale":[1,
		1,
		1],
		"mesh":2
	}],
	"meshes":[{
		"primitives":[{
			"attributes":{
				"POSITION":1,
				"NORMAL":2,
				"TEXCOORD_0":3
			},
			"indices":0,
			"material":0
		}]
	},
	{
		"primitives":[{
			"attributes":{
				"POSITION":5,
				"NORMAL":6,
				"TEXCOORD_0":7
			},
			"indices":4,
			"material":0
		}]
	},
	{
		"primitives":[{
			"attributes":{
				"POSITION":9,
				"NORMAL":10,
				"TEXCOORD_0":11
			},
			"indices":8,
			"material":0
		}]
	}],
	"accessors":[{
		"bufferView":0,
		"type":"SCALAR",
		"componentType":5123,
		"count":32076,
		"byteOffset":0,
		"min":[0],
		"max":[10730]
	},
	{
		"bufferView":1,
		"type":"VEC3",
		"componentType":5126,
		"count":10731,
		"byteOffset":0,
		"min":[-23.335,
		-16.944,
		0],
		"max":[23.34,
		16.944,
		0.6]
	},
	{
		"bufferView":1,
		"type":"VEC3",
		"componentType":5126,
		"count":10731,
		"byteOffset":12,
		"min":[-1,
		-1,
		0],
		"max":[1,
		1,
		0]
	},
	{
		"bufferView":1,
		"type":"VEC2",
		"componentType":5126,
		"count":10731,
		"byteOffset":24,
		"min":[0,
		0],
		"max":[1,
		1]
	},
	{
		"bufferView":2,
		"type":"SCALAR",
		"componentType":5123,
		"count":16026,
		"byteOffset":0,
		"min":[0],
		"max":[5345]
	},
	{
		"bufferView":3,
		"type":"VEC3",
		"componentType":5126,
		"count":5346,
		"byteOffset":0,
		"min":[-23.335,
		-16.944,
		0],
		"max":[23.34,
		16.944,
		0]
	},
	{
		"bufferView":3,
		"type":"VEC3",
		"componentType":5126,
		"count":5346,
		"byteOffset":12,
		"min":[0,
		0,
		-1],
		"max":[0,
		0,
		0]
	},
	{
		"bufferView":3,
		"type":"VEC2",
		"componentType":5126,
		"count":5346,
		"byteOffset":24,
		"min":[0,
		0],
		"max":[0.779,
		1]
	},
	{
		"bufferView":4,
		"type":"SCALAR",
		"componentType":5123,
		"count":16026,
		"byteOffset":0,
		"min":[0],
		"max":[5345]
	},
	{
		"bufferView":5,
		"type":"VEC3",
		"componentType":5126,
		"count":5346,
		"byteOffset":0,
		"min":[-23.335,
		-16.944,
		0.6],
		"max":[23.34,
		16.944,
		0.6]
	},
	{
		"bufferView":5,
		"type":"VEC3",
		"componentType":5126,
		"count":5346,
		"byteOffset":12,
		"min":[0,
		0,
		0],
		"max":[0,
		0,
		1]
	},
	{
		"bufferView":5,
		"type":"VEC2",
		"componentType":5126,
		"count":5346,
		"byteOffset":24,
		"min":[0,
		0],
		"max":[0.779,
		1]
	}],
	"bufferViews":[{
		"buffer":0,
		"byteOffset":0,
		"byteLength":64152,
		"target":34963
	},
	{
		"buffer":0,
		"byteOffset":64152,
		"byteLength":343392,
		"target":34962,
		"byteStride":32
	},
	{
		"buffer":1,
		"byteOffset":0,
		"byteLength":32052,
		"target":34963
	},
	{
		"buffer":1,
		"byteOffset":32052,
		"byteLength":171072,
		"target":34962,
		"byteStride":32
	},
	{
		"buffer":2,
		"byteOffset":0,
		"byteLength":32052,
		"target":34963
	},
	{
		"buffer":2,
		"byteOffset":32052,
		"byteLength":171072,
		"target":34962,
		"byteStride":32
	}],
	"buffers":[{
		"uri":"data:application/octet-stream;base64,",
		"byteLength":407544
	},
	{
		"uri":"data:application/octet-stream;base64,",
		"byteLength":203124
	},
	{
		"uri":"data:application/octet-stream;base64,",
		"byteLength":203124
	}],
	"materials":[{
		"pbrMetallicRoughness":{
			"baseColorFactor":[0.85,
			0.298,
			0,
			0],
			"metallicFactor":0,
			"roughnessFactor":0
		},
		"emissiveFactor":[0,
		0,
		0],
		"alphaMode":"OPAQUE",
		"doubleSided":true,
		"name":"+++Orange"
	}]
}