{
	"asset":{
		"version":"2.0",
		"generator":"Created using the official Cinema 4D glTF Exporter 1.000x287587"
	},
	"scenes":[{
		"nodes":[0]
	}],
	"nodes":[{
		"name":"10Re",
		"translation":[-100.032,
		193.778,
		1007.558],
		"rotation":[-0.101,
		-0.73,
		0.045,
		0.675],
		"scale":[1,
		1,
		1],
		"children":[1]
	},
	{
		"name":"Path 5.2",
		"translation":[-3.619,
		-0.771,
		-0.47],
		"rotation":[-0.105,
		0.87,
		-0.066,
		0.478],
		"scale":[1,
		1,
		1],
		"mesh":0
	}],
	"meshes":[{
		"primitives":[{
			"attributes":{
				"POSITION":1,
				"NORMAL":2,
				"TEXCOORD_0":3
			},
			"indices":0,
			"material":0
		}]
	}],
	"accessors":[{
		"bufferView":0,
		"type":"SCALAR",
		"componentType":5123,
		"count":53448,
		"byteOffset":0,
		"min":[0],
		"max":[17921]
	},
	{
		"bufferView":1,
		"type":"VEC3",
		"componentType":5126,
		"count":17922,
		"byteOffset":0,
		"min":[-6.927,
		-12.775,
		-9.906],
		"max":[6.927,
		12.775,
		9.906]
	},
	{
		"bufferView":1,
		"type":"VEC3",
		"componentType":5126,
		"count":17922,
		"byteOffset":12,
		"min":[-0.819,
		-0.977,
		-0.845],
		"max":[0.821,
		0.977,
		0.845]
	},
	{
		"bufferView":1,
		"type":"VEC2",
		"componentType":5126,
		"count":17922,
		"byteOffset":24,
		"min":[0,
		0],
		"max":[1,
		1]
	}],
	"bufferViews":[{
		"buffer":0,
		"byteOffset":0,
		"byteLength":106896,
		"target":34963
	},
	{
		"buffer":0,
		"byteOffset":106896,
		"byteLength":573504,
		"target":34962,
		"byteStride":32
	}],
	"buffers":[{
		"uri":"data:application/octet-stream;base64,",
		"byteLength":680400
	}],
	"materials":[{
		"pbrMetallicRoughness":{
			"baseColorFactor":[0.631,
			0.631,
			0.631,
			0],
			"metallicFactor":0,
			"roughnessFactor":1
		},
		"emissiveFactor":[0,
		0,
		0],
		"alphaMode":"BLEND",
		"doubleSided":true,
		"name":"+++FROSTED"
	}]
}