{
	"asset":{
		"version":"2.0",
		"generator":"Created using the official Cinema 4D glTF Exporter 1.000x287587"
	},
	"scenes":[{
		"nodes":[0]
	}],
	"nodes":[{
		"name":"36",
		"mesh":0,
		"children":[1,
		2]
	},
	{
		"name":"캡 1",
		"translation":[30.849,
		-16.248,
		0],
		"rotation":[0,
		0,
		0,
		-1],
		"scale":[1,
		1,
		1],
		"mesh":1
	},
	{
		"name":"캡 2",
		"translation":[30.849,
		-16.248,
		0],
		"rotation":[0,
		0,
		0,
		-1],
		"scale":[1,
		1,
		1],
		"mesh":2
	}],
	"meshes":[{
		"primitives":[{
			"attributes":{
				"POSITION":1,
				"NORMAL":2,
				"TEXCOORD_0":3
			},
			"indices":0,
			"material":0
		}]
	},
	{
		"primitives":[{
			"attributes":{
				"POSITION":5,
				"NORMAL":6,
				"TEXCOORD_0":7
			},
			"indices":4,
			"material":0
		}]
	},
	{
		"primitives":[{
			"attributes":{
				"POSITION":9,
				"NORMAL":10,
				"TEXCOORD_0":11
			},
			"indices":8,
			"material":0
		}]
	}],
	"accessors":[{
		"bufferView":0,
		"type":"SCALAR",
		"componentType":5123,
		"count":14568,
		"byteOffset":0,
		"min":[0],
		"max":[4867]
	},
	{
		"bufferView":1,
		"type":"VEC3",
		"componentType":5126,
		"count":4868,
		"byteOffset":0,
		"min":[19.843,
		-21.689,
		-0.6],
		"max":[41.839,
		-10.861,
		0]
	},
	{
		"bufferView":1,
		"type":"VEC3",
		"componentType":5126,
		"count":4868,
		"byteOffset":12,
		"min":[-1,
		-1,
		0],
		"max":[1,
		1,
		0]
	},
	{
		"bufferView":1,
		"type":"VEC2",
		"componentType":5126,
		"count":4868,
		"byteOffset":24,
		"min":[0,
		0],
		"max":[1,
		1]
	},
	{
		"bufferView":2,
		"type":"SCALAR",
		"componentType":5123,
		"count":7284,
		"byteOffset":0,
		"min":[0],
		"max":[2427]
	},
	{
		"bufferView":3,
		"type":"VEC3",
		"componentType":5126,
		"count":2428,
		"byteOffset":0,
		"min":[-11.005,
		-5.442,
		0],
		"max":[10.99,
		5.387,
		0]
	},
	{
		"bufferView":3,
		"type":"VEC3",
		"componentType":5126,
		"count":2428,
		"byteOffset":12,
		"min":[0,
		0,
		1],
		"max":[0,
		0,
		1]
	},
	{
		"bufferView":3,
		"type":"VEC2",
		"componentType":5126,
		"count":2428,
		"byteOffset":24,
		"min":[0,
		0],
		"max":[1,
		0.492]
	},
	{
		"bufferView":4,
		"type":"SCALAR",
		"componentType":5123,
		"count":7284,
		"byteOffset":0,
		"min":[0],
		"max":[2427]
	},
	{
		"bufferView":5,
		"type":"VEC3",
		"componentType":5126,
		"count":2428,
		"byteOffset":0,
		"min":[-11.005,
		-5.442,
		-0.6],
		"max":[10.99,
		5.387,
		-0.6]
	},
	{
		"bufferView":5,
		"type":"VEC3",
		"componentType":5126,
		"count":2428,
		"byteOffset":12,
		"min":[0,
		0,
		-1],
		"max":[0,
		0,
		-1]
	},
	{
		"bufferView":5,
		"type":"VEC2",
		"componentType":5126,
		"count":2428,
		"byteOffset":24,
		"min":[0,
		0],
		"max":[1,
		0.372]
	}],
	"bufferViews":[{
		"buffer":0,
		"byteOffset":0,
		"byteLength":29136,
		"target":34963
	},
	{
		"buffer":0,
		"byteOffset":29136,
		"byteLength":155776,
		"target":34962,
		"byteStride":32
	},
	{
		"buffer":1,
		"byteOffset":0,
		"byteLength":14568,
		"target":34963
	},
	{
		"buffer":1,
		"byteOffset":14568,
		"byteLength":77696,
		"target":34962,
		"byteStride":32
	},
	{
		"buffer":2,
		"byteOffset":0,
		"byteLength":14568,
		"target":34963
	},
	{
		"buffer":2,
		"byteOffset":14568,
		"byteLength":77696,
		"target":34962,
		"byteStride":32
	}],
	"buffers":[{
		"uri":"data:application/octet-stream;base64,",
		"byteLength":184912
	},
	{
		"uri":"data:application/octet-stream;base64,",
		"byteLength":92264
	},
	{
		"uri":"data:application/octet-stream;base64,",
		"byteLength":92264
	}],
	"materials":[{
		"pbrMetallicRoughness":{
			"baseColorFactor":[0,
			0.517,
			1,
			1],
			"metallicFactor":0,
			"roughnessFactor":0
		},
		"emissiveFactor":[0,
		0,
		0],
		"alphaMode":"OPAQUE",
		"doubleSided":true,
	
		"name":"Cyan blue"
	}]
}