mtllib materials.mtl
v 0 0.1042051 0
v 0.1256718 -0.1860214 -0.07255661
v 0.1451133 -0.1860214 5.960464E-08
v 0.07255664 -0.1860214 -0.1256717
v 7.450581E-09 -0.1860214 -0.1451132
v -0.07255662 -0.1860214 -0.1256717
v -0.1256718 -0.1860214 -0.07255661
v -0.1451133 -0.1860214 0
v -0.1256717 -0.1860214 0.07255667
v -0.07255662 -0.1860214 0.1256718
v -7.450581E-09 -0.1860213 0.1451133
v 0.07255661 -0.1860214 0.1256718
v 0.1256718 -0.1860214 0.07255661
v 0.03715421 0.1459595 0
v 0.03217649 0.1459595 -0.0185771
v 0.03217649 -0.0640403 -0.0185771
v 0.03715421 -0.0640403 0
v 0.01857711 0.1459595 -0.03217649
v 0.01857711 -0.06404042 -0.03217649
v 0 0.1459595 -0.03715426
v 0 -0.06404042 -0.0371542
v -0.01857711 0.1459595 -0.03217649
v -0.01857711 -0.06404042 -0.03217649
v -0.03217649 0.1459595 -0.0185771
v -0.03217649 -0.0640403 -0.0185771
v -0.03715421 0.1459595 0
v -0.03715421 -0.0640403 0
v -0.03217649 0.1459595 0.0185771
v -0.03217649 -0.0640403 0.0185771
v -0.01857711 0.1459596 0.03217649
v -0.01857711 -0.0640403 0.03217649
v 0 0.1459596 0.0371542
v 0 -0.0640403 0.03715426
v 0.0185771 0.1459596 0.03217649
v 0.01857711 -0.0640403 0.03217649
v 0.03217649 0.1459595 0.0185771
v 0.03217649 -0.0640403 0.0185771
vn 0.8697965 0.4348982 -0.2330612
vn 0.6367353 0.4348981 -0.6367353
vn 0.2330612 0.4348981 -0.8697966
vn -0.2330611 0.4348981 -0.8697966
vn -0.6367352 0.4348981 -0.6367354
vn -0.8697966 0.4348982 -0.2330613
vn -0.8697965 0.4348983 0.2330614
vn -0.6367353 0.4348983 0.6367351
vn -0.2330613 0.4348985 0.8697965
vn 0.2330612 0.4348984 0.8697965
vn 0.6367353 0.4348983 0.6367352
vn 0.8697966 0.4348983 0.2330611
vn 6.490213E-09 -1 1.514214E-07
vn 0.9659258 -3.838036E-08 -0.258819
vn 0.7071068 -1.158877E-07 -0.7071068
vn 0.2588192 -1.637481E-07 -0.9659258
vn -0.2588191 -1.645872E-07 -0.9659258
vn -0.7071068 -1.295636E-07 -0.7071068
vn -0.9659258 -5.111863E-08 -0.2588192
vn -0.9659257 3.807897E-08 0.2588194
vn -0.7071068 1.185726E-07 0.7071068
vn -0.2588192 1.68429E-07 0.9659258
vn 0.2588191 1.64183E-07 0.9659258
vn 0.7071067 1.273667E-07 0.7071069
vn 0.9659259 5.044756E-08 0.2588189
vn -4.537482E-08 1 -1.722888E-07
vn 2.382714E-08 -1 1.722888E-07
vt 0.1474106 0.04712123
vt 0.1158317 0.05458235
vt 0.1149623 0.04712121
vt -0.13135 -0.03203003
vt -0.09947486 -0.0381021
vt -0.09893275 -0.03061007
vt -0.1218632 0.01811476
vt -0.09114076 0.007673181
vt -0.08956305 0.01501724
vt -0.106615 0.07138664
vt -0.07795239 0.05617657
vt -0.07522301 0.06317478
vt -0.08058107 0.1219536
vt -0.05597095 0.1008057
vt -0.05176765 0.1070312
vt -0.03204679 0.1616939
vt -0.01612579 0.13342
vt -0.01005112 0.1378385
vt 0.04802861 0.1704007
vt 0.0473256 0.13796
vt 0.05480382 0.1386676
vt 0.1190207 0.1379017
vt 0.1007358 0.1110958
vt 0.1073894 0.1076097
vt 0.1468708 0.1096791
vt 0.1195255 0.09221116
vt 0.1242748 0.08639146
vt 0.1525988 0.1008948
vt 0.1217551 0.09081699
vt 0.1248989 0.08399488
vt 0.1511782 0.09767321
vt 0.1190533 0.09310266
vt 0.1209651 0.08583838
vt 0.1474106 0.08684064
vt 0.1149623 0.08684064
vt 0.1158318 0.07937952
vt -0.05652257 0.04652476
vt -0.06400943 0.04713422
vt -0.07079796 0.0439186
vt -0.07506919 0.03773953
vt -0.07567865 0.03025268
vt -0.07246302 0.02346415
vt -0.06628396 0.01919292
vt -0.0587971 0.01858346
vt -0.05200857 0.02179908
vt -0.04773734 0.02797816
vt -0.04712788 0.035465
vt -0.05034351 0.04225354
vt -0.03242297 0.1822846
vt -0.03431828 0.1826112
vt -0.03788421 0.1619162
vt -0.0359889 0.1615896
vt -0.1470775 0.101624
vt -0.1485006 0.1003303
vt -0.1343741 0.08479189
vt -0.132951 0.08608565
vt -0.1545639 0.08049728
vt -0.1555193 0.07882814
vt -0.137294 0.06839566
vt -0.1363385 0.0700648
vt -0.1451735 0.1003591
vt -0.1459951 0.09862011
vt -0.1270073 0.08964978
vt -0.1261858 0.09138872
vt -0.128116 0.1309607
vt -0.1290046 0.1292551
vt -0.1103809 0.1195516
vt -0.1094923 0.1212572
vt -0.08937056 0.1650959
vt -0.09059721 0.1636146
vt -0.07442302 0.1502208
vt -0.07319637 0.1517021
vt 0.03431843 0.1826112
vt 0.03242312 0.1822846
vt 0.03598903 0.1615896
vt 0.03788435 0.1619162
vt 0.1485006 0.1003303
vt 0.1470775 0.101624
vt 0.132951 0.08608566
vt 0.1343741 0.08479191
vt 0.1555193 0.07882816
vt 0.1545639 0.08049729
vt 0.1363385 0.07006481
vt 0.137294 0.06839567
vt 0.1459951 0.09862012
vt 0.1451735 0.1003591
vt 0.1261858 0.09138874
vt 0.1270074 0.08964978
vt 0.1290047 0.1292551
vt 0.128116 0.1309607
vt 0.1094923 0.1212572
vt 0.1103809 0.1195516
vt 0.09059718 0.1636146
vt 0.08937053 0.1650959
vt 0.07319634 0.1517021
vt 0.07442299 0.1502208
vt 0.05857156 0.03526423
vt 0.05774825 0.03352612
vt 0.05790429 0.03160921
vt 0.05899788 0.03002715
vt 0.06073598 0.02920384
vt 0.06265289 0.02935988
vt 0.06423495 0.03045346
vt 0.06505827 0.03219157
vt 0.06490223 0.03410848
vt 0.06380863 0.03569054
vt 0.06207053 0.03651386
vt 0.06015362 0.03635781
vt -0.06015363 0.03635781
vt -0.06207053 0.03651385
vt -0.06380863 0.03569054
vt -0.06490223 0.03410847
vt -0.06505828 0.03219157
vt -0.06423496 0.03045346
vt -0.06265289 0.02935987
vt -0.06073599 0.02920383
vt -0.05899788 0.03002715
vt -0.05790428 0.03160921
vt -0.05774825 0.03352612
vt -0.05857157 0.03526422
o group2060173303
g mesh2060173303
usemtl mat21
f 3/3/1 2/2/1 1/1/1
f 2/6/2 4/5/2 1/4/2
f 4/9/3 5/8/3 1/7/3
f 5/12/4 6/11/4 1/10/4
f 6/15/5 7/14/5 1/13/5
f 7/18/6 8/17/6 1/16/6
f 8/21/7 9/20/7 1/19/7
f 9/24/8 10/23/8 1/22/8
f 10/27/9 11/26/9 1/25/9
f 11/30/10 12/29/10 1/28/10
f 12/33/11 13/32/11 1/31/11
f 13/36/12 3/35/12 1/34/12
f 13/48/13 12/47/13 11/46/13 10/45/13 9/44/13 8/43/13 7/42/13 6/41/13 5/40/13 4/39/13 2/38/13 3/37/13
o group1300488630
g mesh1300488630
usemtl mat21
f 17/52/14 16/51/14 15/50/14 14/49/14
f 16/56/15 19/55/15 18/54/15 15/53/15
f 19/60/16 21/59/16 20/58/16 18/57/16
f 21/64/17 23/63/17 22/62/17 20/61/17
f 23/68/18 25/67/18 24/66/18 22/65/18
f 25/72/19 27/71/19 26/70/19 24/69/19
f 27/76/20 29/75/20 28/74/20 26/73/20
f 29/80/21 31/79/21 30/78/21 28/77/21
f 31/84/22 33/83/22 32/82/22 30/81/22
f 33/88/23 35/87/23 34/86/23 32/85/23
f 35/92/24 37/91/24 36/90/24 34/89/24
f 37/96/25 17/95/25 14/94/25 36/93/25
f 14/108/26 15/107/26 18/106/26 20/105/26 22/104/26 24/103/26 26/102/26 28/101/26 30/100/26 32/99/26 34/98/26 36/97/26
f 37/120/27 35/119/27 33/118/27 31/117/27 29/116/27 27/115/27 25/114/27 23/113/27 21/112/27 19/111/27 16/110/27 17/109/27
