{
    "asset" : {
        "generator" : "Khronos glTF Blender I/O v1.3.48",
        "version" : "2.0"
    },
    "scene" : 0,
    "scenes" : [
        {
            "name" : "Scene",
            "nodes" : [
                0
            ]
        }
    ],
    "nodes" : [
        {
            "mesh" : 0,
            "name" : "12-GREENBLUE"
        }
    ],
    "materials" : [
        {
            "alphaMode" : "BLEND",
            "doubleSided" : true,
            "emissiveFactor" : [
                0,
                0,
                0
            ],
            "name" : "light blue.004",
            "pbrMetallicRoughness" : {
                "baseColorFactor" : [
                    0.252126008272171,
                    0.8879232406616211,
                    0.7645761966705322,
                    0.5718861222267151
                ],
                "metallicFactor" : 0.04270462691783905,
                "roughnessFactor" : 0
            }
        }
    ],
    "meshes" : [
        {
            "name" : "12-GREENBLUE",
            "primitives" : [
                {
                    "attributes" : {
                        "POSITION" : 0,
                        "NORMAL" : 1,
                        "TEXCOORD_0" : 2
                    },
                    "indices" : 3,
                    "material" : 0
                }
            ]
        }
    ],
    "accessors" : [
        {
            "bufferView" : 0,
            "componentType" : 5126,
            "count" : 23240,
            "max" : [
                5.477142333984375,
                8.13986873626709,
                11.084760665893555
            ],
            "min" : [
                -5.477142333984375,
                -8.13986873626709,
                -11.084760665893555
            ],
            "type" : "VEC3"
        },
        {
            "bufferView" : 1,
            "componentType" : 5126,
            "count" : 23240,
            "type" : "VEC3"
        },
        {
            "bufferView" : 2,
            "componentType" : 5126,
            "count" : 23240,
            "type" : "VEC2"
        },
        {
            "bufferView" : 3,
            "componentType" : 5123,
            "count" : 34968,
            "type" : "SCALAR"
        }
    ],
    "bufferViews" : [
        {
            "buffer" : 0,
            "byteLength" : 278880,
            "byteOffset" : 0
        },
        {
            "buffer" : 0,
            "byteLength" : 278880,
            "byteOffset" : 278880
        },
        {
            "buffer" : 0,
            "byteLength" : 185920,
            "byteOffset" : 557760
        },
        {
            "buffer" : 0,
            "byteLength" : 69936,
            "byteOffset" : 743680
        }
    ],
    "buffers" : [
        {
            "byteLength" : 813616,
            "uri" : "data:application/octet-stream;base64,"
        }
    ]
}
