{
    "asset" : {
        "generator" : "Khronos glTF Blender I/O v1.3.48",
        "version" : "2.0"
    },
    "scene" : 0,
    "scenes" : [
        {
            "name" : "Scene",
            "nodes" : [
                0
            ]
        }
    ],
    "nodes" : [
        {
            "mesh" : 0,
            "name" : "14-IRDEYELLO"
        }
    ],
    "materials" : [
        {
            "alphaMode" : "BLEND",
            "doubleSided" : true,
            "emissiveFactor" : [
                0,
                0,
                0
            ],
            "name" : "Yellow.006",
            "pbrMetallicRoughness" : {
                "baseColorFactor" : [
                    1,
                    0.9301108717918396,
                    0,
                    0.8948754668235779
                ],
                "metallicFactor" : 0.05000000074505806,
                "roughnessFactor" : 0
            }
        }
    ],
    "meshes" : [
        {
            "name" : "14-IRDEYELLO",
            "primitives" : [
                {
                    "attributes" : {
                        "POSITION" : 0,
                        "NORMAL" : 1,
                        "TEXCOORD_0" : 2
                    },
                    "indices" : 3,
                    "material" : 0
                }
            ]
        }
    ],
    "accessors" : [
        {
            "bufferView" : 0,
            "componentType" : 5126,
            "count" : 20927,
            "max" : [
                11.219130516052246,
                15.122259140014648,
                0.3499999940395355
            ],
            "min" : [
                -11.219130516052246,
                -15.122259140014648,
                -0.3499999940395355
            ],
            "type" : "VEC3"
        },
        {
            "bufferView" : 1,
            "componentType" : 5126,
            "count" : 20927,
            "type" : "VEC3"
        },
        {
            "bufferView" : 2,
            "componentType" : 5126,
            "count" : 20927,
            "type" : "VEC2"
        },
        {
            "bufferView" : 3,
            "componentType" : 5123,
            "count" : 33900,
            "type" : "SCALAR"
        }
    ],
    "bufferViews" : [
        {
            "buffer" : 0,
            "byteLength" : 251124,
            "byteOffset" : 0
        },
        {
            "buffer" : 0,
            "byteLength" : 251124,
            "byteOffset" : 251124
        },
        {
            "buffer" : 0,
            "byteLength" : 167416,
            "byteOffset" : 502248
        },
        {
            "buffer" : 0,
            "byteLength" : 67800,
            "byteOffset" : 669664
        }
    ],
    "buffers" : [
        {
            "byteLength" : 737464,
            "uri" : "data:application/octet-stream;base64,"
        }
    ]
}
