{
    "asset" : {
        "generator" : "Khronos glTF Blender I/O v1.3.48",
        "version" : "2.0"
    },
    "scene" : 0,
    "scenes" : [
        {
            "name" : "Scene",
            "nodes" : [
                0
            ]
        }
    ],
    "nodes" : [
        {
            "mesh" : 0,
            "name" : "19-MASHBLUE",
            "rotation" : [
                0,
                0.7069999575614929,
                0,
                0.7072135806083679
            ],
            "scale" : [
                0.9996981024742126,
                1,
                0.9996981024742126
            ]
        }
    ],
    "materials" : [
        {
            "doubleSided" : true,
            "emissiveFactor" : [
                0,
                0,
                0
            ],
            "name" : "dust glass.002",
            "pbrMetallicRoughness" : {
                "baseColorFactor" : [
                    0.05780543386936188,
                    0.2015562355518341,
                    0.830769956111908,
                    1
                ],
                "metallicFactor" : 0,
                "roughnessFactor" : 0
            }
        }
    ],
    "meshes" : [
        {
            "name" : "19-MASHBLUE",
            "primitives" : [
                {
                    "attributes" : {
                        "POSITION" : 0,
                        "NORMAL" : 1,
                        "TEXCOORD_0" : 2
                    },
                    "indices" : 3,
                    "material" : 0
                }
            ]
        }
    ],
    "accessors" : [
        {
            "bufferView" : 0,
            "componentType" : 5126,
            "count" : 21852,
            "max" : [
                0.8473630547523499,
                8.597945213317871,
                6.488879203796387
            ],
            "min" : [
                -0.8473630547523499,
                -8.597945213317871,
                -6.488879203796387
            ],
            "type" : "VEC3"
        },
        {
            "bufferView" : 1,
            "componentType" : 5126,
            "count" : 21852,
            "type" : "VEC3"
        },
        {
            "bufferView" : 2,
            "componentType" : 5126,
            "count" : 21852,
            "type" : "VEC2"
        },
        {
            "bufferView" : 3,
            "componentType" : 5123,
            "count" : 32772,
            "type" : "SCALAR"
        }
    ],
    "bufferViews" : [
        {
            "buffer" : 0,
            "byteLength" : 262224,
            "byteOffset" : 0
        },
        {
            "buffer" : 0,
            "byteLength" : 262224,
            "byteOffset" : 262224
        },
        {
            "buffer" : 0,
            "byteLength" : 174816,
            "byteOffset" : 524448
        },
        {
            "buffer" : 0,
            "byteLength" : 65544,
            "byteOffset" : 699264
        }
    ],
    "buffers" : [
        {
            "byteLength" : 764808,
            "uri" : "data:application/octet-stream;base64,"
        }
    ]
}
