{
    "asset" : {
        "generator" : "Khronos glTF Blender I/O v1.3.48",
        "version" : "2.0"
    },
    "scene" : 0,
    "scenes" : [
        {
            "name" : "Scene",
            "nodes" : [
                0
            ]
        }
    ],
    "nodes" : [
        {
            "mesh" : 0,
            "name" : "2-GREENBLUE",
            "rotation" : [
                -0.058266595005989075,
                0,
                0,
                0.998301088809967
            ],
            "scale" : [
                1,
                1.0000205039978027,
                1.0000205039978027
            ]
        }
    ],
    "materials" : [
        {
            "alphaMode" : "BLEND",
            "doubleSided" : true,
            "emissiveFactor" : [
                0,
                0,
                0
            ],
            "name" : "BLUEGlass.002",
            "pbrMetallicRoughness" : {
                "baseColorFactor" : [
                    0.11631722748279572,
                    0.6599875092506409,
                    1,
                    0.4530605673789978
                ],
                "metallicFactor" : 0.06423487514257431,
                "roughnessFactor" : 0
            }
        }
    ],
    "meshes" : [
        {
            "name" : "2-GREENBLUE",
            "primitives" : [
                {
                    "attributes" : {
                        "POSITION" : 0,
                        "NORMAL" : 1,
                        "TEXCOORD_0" : 2
                    },
                    "indices" : 3,
                    "material" : 0
                }
            ]
        }
    ],
    "accessors" : [
        {
            "bufferView" : 0,
            "componentType" : 5126,
            "count" : 25380,
            "max" : [
                10.599126815795898,
                20.66484832763672,
                8.44867992401123
            ],
            "min" : [
                -10.599126815795898,
                -20.66484832763672,
                -8.44867992401123
            ],
            "type" : "VEC3"
        },
        {
            "bufferView" : 1,
            "componentType" : 5126,
            "count" : 25380,
            "type" : "VEC3"
        },
        {
            "bufferView" : 2,
            "componentType" : 5126,
            "count" : 25380,
            "type" : "VEC2"
        },
        {
            "bufferView" : 3,
            "componentType" : 5123,
            "count" : 38160,
            "type" : "SCALAR"
        }
    ],
    "bufferViews" : [
        {
            "buffer" : 0,
            "byteLength" : 304560,
            "byteOffset" : 0
        },
        {
            "buffer" : 0,
            "byteLength" : 304560,
            "byteOffset" : 304560
        },
        {
            "buffer" : 0,
            "byteLength" : 203040,
            "byteOffset" : 609120
        },
        {
            "buffer" : 0,
            "byteLength" : 76320,
            "byteOffset" : 812160
        }
    ],
    "buffers" : [
        {
            "byteLength" : 888480,
            "uri" : "data:application/octet-stream;base64,"
        }
    ]
}
