{
    "asset" : {
        "generator" : "Khronos glTF Blender I/O v1.3.48",
        "version" : "2.0"
    },
    "scene" : 0,
    "scenes" : [
        {
            "name" : "Scene",
            "nodes" : [
                4
            ]
        }
    ],
    "nodes" : [
        {
            "mesh" : 0,
            "name" : "ICEDWHITE",
            "rotation" : [
                0,
                0.7340058088302612,
                0,
                0.6791431903839111
            ],
            "scale" : [
                0.9997813105583191,
                1,
                0.9997813105583191
            ],
            "translation" : [
                10.90999984741211,
                12.92699909210205,
                -117.89398956298828
            ]
        },
        {
            "mesh" : 1,
            "name" : "LINE",
            "rotation" : [
                0,
                0.7340058088302612,
                0,
                0.6791431903839111
            ],
            "scale" : [
                0.9997813105583191,
                1,
                0.9997813105583191
            ],
            "translation" : [
                12.847997665405273,
                -13.795000076293945,
                -116.78799438476562
            ]
        },
        {
            "mesh" : 2,
            "name" : "ORANGE",
            "rotation" : [
                0,
                0.7340058088302612,
                0,
                0.6791431903839111
            ],
            "scale" : [
                0.9997813105583191,
                1,
                0.9997813105583191
            ],
            "translation" : [
                12.264999389648438,
                -19.10300064086914,
                -116.56400299072266
            ]
        },
        {
            "mesh" : 3,
            "name" : "VIOLETMIRROR",
            "rotation" : [
                0,
                0.7340058088302612,
                0,
                0.6791431903839111
            ],
            "scale" : [
                0.9997813105583191,
                1,
                0.9997813105583191
            ],
            "translation" : [
                13.024999618530273,
                0.6909999847412109,
                -116.40298461914062
            ]
        },
        {
            "children" : [
                0,
                1,
                2,
                3
            ],
            "name" : "3-1",
            "rotation" : [
                0,
                -0.7340058088302612,
                0,
                0.6791431903839111
            ],
            "scale" : [
                0.9997813105583191,
                1,
                0.9997813105583191
            ],
            "translation" : [
                0,
                92.62397766113281,
                0
            ]
        }
    ],
    "materials" : [
        {
            "alphaMode" : "BLEND",
            "doubleSided" : true,
            "emissiveFactor" : [
                0.10999999940395355,
                0.10999999940395355,
                0.10999999940395355
            ],
            "name" : "dust glass.003",
            "pbrMetallicRoughness" : {
                "baseColorFactor" : [
                    1,
                    1,
                    1,
                    0.6085408926010132
                ],
                "metallicFactor" : 0,
                "roughnessFactor" : 0
            }
        },
        {
            "doubleSided" : true,
            "emissiveFactor" : [
                0,
                0,
                0
            ],
            "name" : "Material_9",
            "pbrMetallicRoughness" : {
                "baseColorFactor" : [
                    1,
                    1,
                    1,
                    1
                ],
                "metallicFactor" : 1,
                "roughnessFactor" : 1
            }
        },
        {
            "alphaMode" : "BLEND",
            "doubleSided" : true,
            "emissiveFactor" : [
                0,
                0,
                0
            ],
            "name" : "Mat Orange.001",
            "pbrMetallicRoughness" : {
                "baseColorFactor" : [
                    1,
                    0.19806930422782898,
                    0,
                    0.6739501357078552
                ],
                "metallicFactor" : 0.06693950295448303,
                "roughnessFactor" : 0
            }
        },
        {
            "alphaMode" : "BLEND",
            "doubleSided" : true,
            "emissiveFactor" : [
                0,
                0,
                0
            ],
            "name" : "Gmirror.003",
            "pbrMetallicRoughness" : {
                "baseColorFactor" : [
                    1,
                    0.05448026955127716,
                    1,
                    0.949999988079071
                ],
                "metallicFactor" : 0.925409197807312,
                "roughnessFactor" : 0
            }
        }
    ],
    "meshes" : [
        {
            "name" : "ICEDWHITE",
            "primitives" : [
                {
                    "attributes" : {
                        "POSITION" : 0,
                        "NORMAL" : 1,
                        "TEXCOORD_0" : 2
                    },
                    "indices" : 3,
                    "material" : 0
                }
            ]
        },
        {
            "name" : "LINE",
            "primitives" : [
                {
                    "attributes" : {
                        "POSITION" : 4,
                        "NORMAL" : 5,
                        "TEXCOORD_0" : 6
                    },
                    "indices" : 7,
                    "material" : 1
                }
            ]
        },
        {
            "name" : "ORANGE",
            "primitives" : [
                {
                    "attributes" : {
                        "POSITION" : 8,
                        "NORMAL" : 9,
                        "TEXCOORD_0" : 10
                    },
                    "indices" : 11,
                    "material" : 2
                }
            ]
        },
        {
            "name" : "VIOLETMIRROR",
            "primitives" : [
                {
                    "attributes" : {
                        "POSITION" : 12,
                        "NORMAL" : 13,
                        "TEXCOORD_0" : 14
                    },
                    "indices" : 15,
                    "material" : 3
                }
            ]
        }
    ],
    "accessors" : [
        {
            "bufferView" : 0,
            "componentType" : 5126,
            "count" : 1044,
            "max" : [
                1.9313013553619385,
                5.085417747497559,
                4.5860466957092285
            ],
            "min" : [
                -1.9313013553619385,
                -5.085417747497559,
                -4.5860466957092285
            ],
            "type" : "VEC3"
        },
        {
            "bufferView" : 1,
            "componentType" : 5126,
            "count" : 1044,
            "type" : "VEC3"
        },
        {
            "bufferView" : 2,
            "componentType" : 5126,
            "count" : 1044,
            "type" : "VEC2"
        },
        {
            "bufferView" : 3,
            "componentType" : 5123,
            "count" : 1560,
            "type" : "SCALAR"
        },
        {
            "bufferView" : 4,
            "componentType" : 5126,
            "count" : 16,
            "max" : [
                0.5959686636924744,
                2.143005132675171,
                1.863945722579956
            ],
            "min" : [
                -0.5959686636924744,
                -2.143005132675171,
                -1.863945722579956
            ],
            "type" : "VEC3"
        },
        {
            "bufferView" : 5,
            "componentType" : 5126,
            "count" : 16,
            "type" : "VEC3"
        },
        {
            "bufferView" : 6,
            "componentType" : 5126,
            "count" : 16,
            "type" : "VEC2"
        },
        {
            "bufferView" : 7,
            "componentType" : 5123,
            "count" : 18,
            "type" : "SCALAR"
        },
        {
            "bufferView" : 8,
            "componentType" : 5126,
            "count" : 3078,
            "max" : [
                1.4317632913589478,
                5.203884124755859,
                3.681244373321533
            ],
            "min" : [
                -1.4317632913589478,
                -5.203884124755859,
                -3.681244373321533
            ],
            "type" : "VEC3"
        },
        {
            "bufferView" : 9,
            "componentType" : 5126,
            "count" : 3078,
            "type" : "VEC3"
        },
        {
            "bufferView" : 10,
            "componentType" : 5126,
            "count" : 3078,
            "type" : "VEC2"
        },
        {
            "bufferView" : 11,
            "componentType" : 5123,
            "count" : 4584,
            "type" : "SCALAR"
        },
        {
            "bufferView" : 12,
            "componentType" : 5126,
            "count" : 3376,
            "max" : [
                2.2888474464416504,
                13.55630111694336,
                6.574132442474365
            ],
            "min" : [
                -2.2888474464416504,
                -13.55630111694336,
                -6.574132442474365
            ],
            "type" : "VEC3"
        },
        {
            "bufferView" : 13,
            "componentType" : 5126,
            "count" : 3376,
            "type" : "VEC3"
        },
        {
            "bufferView" : 14,
            "componentType" : 5126,
            "count" : 3376,
            "type" : "VEC2"
        },
        {
            "bufferView" : 15,
            "componentType" : 5123,
            "count" : 8004,
            "type" : "SCALAR"
        }
    ],
    "bufferViews" : [
        {
            "buffer" : 0,
            "byteLength" : 12528,
            "byteOffset" : 0
        },
        {
            "buffer" : 0,
            "byteLength" : 12528,
            "byteOffset" : 12528
        },
        {
            "buffer" : 0,
            "byteLength" : 8352,
            "byteOffset" : 25056
        },
        {
            "buffer" : 0,
            "byteLength" : 3120,
            "byteOffset" : 33408
        },
        {
            "buffer" : 0,
            "byteLength" : 192,
            "byteOffset" : 36528
        },
        {
            "buffer" : 0,
            "byteLength" : 192,
            "byteOffset" : 36720
        },
        {
            "buffer" : 0,
            "byteLength" : 128,
            "byteOffset" : 36912
        },
        {
            "buffer" : 0,
            "byteLength" : 36,
            "byteOffset" : 37040
        },
        {
            "buffer" : 0,
            "byteLength" : 36936,
            "byteOffset" : 37076
        },
        {
            "buffer" : 0,
            "byteLength" : 36936,
            "byteOffset" : 74012
        },
        {
            "buffer" : 0,
            "byteLength" : 24624,
            "byteOffset" : 110948
        },
        {
            "buffer" : 0,
            "byteLength" : 9168,
            "byteOffset" : 135572
        },
        {
            "buffer" : 0,
            "byteLength" : 40512,
            "byteOffset" : 144740
        },
        {
            "buffer" : 0,
            "byteLength" : 40512,
            "byteOffset" : 185252
        },
        {
            "buffer" : 0,
            "byteLength" : 27008,
            "byteOffset" : 225764
        },
        {
            "buffer" : 0,
            "byteLength" : 16008,
            "byteOffset" : 252772
        }
    ],
    "buffers" : [
        {
            "byteLength" : 268780,
            "uri" : "data:application/octet-stream;base64,"
        }
    ]
}
