{
    "asset" : {
        "generator" : "Khronos glTF Blender I/O v1.3.48",
        "version" : "2.0"
    },
    "scene" : 0,
    "scenes" : [
        {
            "name" : "Scene",
            "nodes" : [
                4
            ]
        }
    ],
    "nodes" : [
        {
            "mesh" : 0,
            "name" : "ICEDWHITE-BODY",
            "translation" : [
                -0.11499998718500137,
                5.289000034332275,
                1.7089998722076416
            ]
        },
        {
            "mesh" : 1,
            "name" : "ICEDWHITE-BOTTOM",
            "translation" : [
                -0.28700000047683716,
                -10.10200023651123,
                -1.371000051498413
            ]
        },
        {
            "mesh" : 2,
            "name" : "LINE 2",
            "translation" : [
                0.0430000014603138,
                -6.011000156402588,
                1.5819998979568481
            ]
        },
        {
            "mesh" : 3,
            "name" : "ORANGE 2",
            "translation" : [
                0.35899999737739563,
                10.822999954223633,
                -1.9210000038146973
            ]
        },
        {
            "children" : [
                0,
                1,
                2,
                3
            ],
            "name" : "3-2"
        }
    ],
    "materials" : [
        {
            "alphaMode" : "BLEND",
            "doubleSided" : true,
            "emissiveFactor" : [
                0.10999999940395355,
                0.10999999940395355,
                0.10999999940395355
            ],
            "name" : "dust glass.003",
            "pbrMetallicRoughness" : {
                "baseColorFactor" : [
                    1,
                    1,
                    1,
                    0.6085408926010132
                ],
                "metallicFactor" : 0,
                "roughnessFactor" : 0
            }
        },
        {
            "doubleSided" : true,
            "emissiveFactor" : [
                0,
                0,
                0
            ],
            "name" : "Material_9",
            "pbrMetallicRoughness" : {
                "baseColorFactor" : [
                    1,
                    1,
                    1,
                    1
                ],
                "metallicFactor" : 1,
                "roughnessFactor" : 1
            }
        },
        {
            "alphaMode" : "BLEND",
            "doubleSided" : true,
            "emissiveFactor" : [
                0,
                0,
                0
            ],
            "name" : "Mat Orange.001",
            "pbrMetallicRoughness" : {
                "baseColorFactor" : [
                    1,
                    0.19806930422782898,
                    0,
                    0.6739501357078552
                ],
                "metallicFactor" : 0.06693950295448303,
                "roughnessFactor" : 0
            }
        }
    ],
    "meshes" : [
        {
            "name" : "ICEDWHITE-BODY",
            "primitives" : [
                {
                    "attributes" : {
                        "POSITION" : 0,
                        "NORMAL" : 1,
                        "TEXCOORD_0" : 2
                    },
                    "indices" : 3,
                    "material" : 0
                }
            ]
        },
        {
            "name" : "ICEDWHITE-BOTTOM",
            "primitives" : [
                {
                    "attributes" : {
                        "POSITION" : 4,
                        "NORMAL" : 5,
                        "TEXCOORD_0" : 6
                    },
                    "indices" : 7,
                    "material" : 0
                }
            ]
        },
        {
            "name" : "LINE 2",
            "primitives" : [
                {
                    "attributes" : {
                        "POSITION" : 8,
                        "NORMAL" : 9,
                        "TEXCOORD_0" : 10
                    },
                    "indices" : 11,
                    "material" : 1
                }
            ]
        },
        {
            "name" : "ORANGE 2",
            "primitives" : [
                {
                    "attributes" : {
                        "POSITION" : 12,
                        "NORMAL" : 13,
                        "TEXCOORD_0" : 14
                    },
                    "indices" : 15,
                    "material" : 2
                }
            ]
        }
    ],
    "accessors" : [
        {
            "bufferView" : 0,
            "componentType" : 5126,
            "count" : 3964,
            "max" : [
                0.9524785280227661,
                9.555500030517578,
                11.960920333862305
            ],
            "min" : [
                -0.9524785280227661,
                -9.555500030517578,
                -11.960920333862305
            ],
            "type" : "VEC3"
        },
        {
            "bufferView" : 1,
            "componentType" : 5126,
            "count" : 3964,
            "type" : "VEC3"
        },
        {
            "bufferView" : 2,
            "componentType" : 5126,
            "count" : 3964,
            "type" : "VEC2"
        },
        {
            "bufferView" : 3,
            "componentType" : 5123,
            "count" : 5940,
            "type" : "SCALAR"
        },
        {
            "bufferView" : 4,
            "componentType" : 5126,
            "count" : 3366,
            "max" : [
                0.6999062895774841,
                4.16474723815918,
                7.963608741760254
            ],
            "min" : [
                -0.6999062895774841,
                -4.16474723815918,
                -7.963608741760254
            ],
            "type" : "VEC3"
        },
        {
            "bufferView" : 5,
            "componentType" : 5126,
            "count" : 3366,
            "type" : "VEC3"
        },
        {
            "bufferView" : 6,
            "componentType" : 5126,
            "count" : 3366,
            "type" : "VEC2"
        },
        {
            "bufferView" : 7,
            "componentType" : 5123,
            "count" : 5052,
            "type" : "SCALAR"
        },
        {
            "bufferView" : 8,
            "componentType" : 5126,
            "count" : 12,
            "max" : [
                0.273997962474823,
                2.978070020675659,
                3.492196559906006
            ],
            "min" : [
                -0.273997962474823,
                -2.978070020675659,
                -3.492196559906006
            ],
            "type" : "VEC3"
        },
        {
            "bufferView" : 9,
            "componentType" : 5126,
            "count" : 12,
            "type" : "VEC3"
        },
        {
            "bufferView" : 10,
            "componentType" : 5126,
            "count" : 12,
            "type" : "VEC2"
        },
        {
            "bufferView" : 11,
            "componentType" : 5123,
            "count" : 12,
            "type" : "SCALAR"
        },
        {
            "bufferView" : 12,
            "componentType" : 5126,
            "count" : 4916,
            "max" : [
                0.7773082852363586,
                12.132585525512695,
                9.137091636657715
            ],
            "min" : [
                -0.7773082852363586,
                -12.132585525512695,
                -9.137091636657715
            ],
            "type" : "VEC3"
        },
        {
            "bufferView" : 13,
            "componentType" : 5126,
            "count" : 4916,
            "type" : "VEC3"
        },
        {
            "bufferView" : 14,
            "componentType" : 5126,
            "count" : 4916,
            "type" : "VEC2"
        },
        {
            "bufferView" : 15,
            "componentType" : 5123,
            "count" : 7368,
            "type" : "SCALAR"
        }
    ],
    "bufferViews" : [
        {
            "buffer" : 0,
            "byteLength" : 47568,
            "byteOffset" : 0
        },
        {
            "buffer" : 0,
            "byteLength" : 47568,
            "byteOffset" : 47568
        },
        {
            "buffer" : 0,
            "byteLength" : 31712,
            "byteOffset" : 95136
        },
        {
            "buffer" : 0,
            "byteLength" : 11880,
            "byteOffset" : 126848
        },
        {
            "buffer" : 0,
            "byteLength" : 40392,
            "byteOffset" : 138728
        },
        {
            "buffer" : 0,
            "byteLength" : 40392,
            "byteOffset" : 179120
        },
        {
            "buffer" : 0,
            "byteLength" : 26928,
            "byteOffset" : 219512
        },
        {
            "buffer" : 0,
            "byteLength" : 10104,
            "byteOffset" : 246440
        },
        {
            "buffer" : 0,
            "byteLength" : 144,
            "byteOffset" : 256544
        },
        {
            "buffer" : 0,
            "byteLength" : 144,
            "byteOffset" : 256688
        },
        {
            "buffer" : 0,
            "byteLength" : 96,
            "byteOffset" : 256832
        },
        {
            "buffer" : 0,
            "byteLength" : 24,
            "byteOffset" : 256928
        },
        {
            "buffer" : 0,
            "byteLength" : 58992,
            "byteOffset" : 256952
        },
        {
            "buffer" : 0,
            "byteLength" : 58992,
            "byteOffset" : 315944
        },
        {
            "buffer" : 0,
            "byteLength" : 39328,
            "byteOffset" : 374936
        },
        {
            "buffer" : 0,
            "byteLength" : 14736,
            "byteOffset" : 414264
        }
    ],
    "buffers" : [
        {
            "byteLength" : 429000,
            "uri" : "data:application/octet-stream;base64,"
        }
    ]
}
