{
    "asset" : {
        "generator" : "Khronos glTF Blender I/O v1.3.48",
        "version" : "2.0"
    },
    "scene" : 0,
    "scenes" : [
        {
            "name" : "Scene",
            "nodes" : [
                2
            ]
        }
    ],
    "nodes" : [
        {
            "mesh" : 0,
            "name" : "BLACK",
            "rotation" : [
                -0.057935845106840134,
                0.8628053069114685,
                -0.02798979915678501,
                0.5014249682426453
            ],
            "scale" : [
                1.001372218132019,
                1.0000076293945312,
                1.001376986503601
            ],
            "translation" : [
                -4.127999782562256,
                -1.0499999523162842,
                0.8840000033378601
            ]
        },
        {
            "mesh" : 1,
            "name" : "BLUE",
            "rotation" : [
                -0.057935845106840134,
                0.8628053069114685,
                -0.02798979915678501,
                0.5014249682426453
            ],
            "scale" : [
                1.001372218132019,
                1.0000076293945312,
                1.001376986503601
            ],
            "translation" : [
                -2.2750000953674316,
                -8.234999656677246,
                0.17899999022483826
            ]
        },
        {
            "children" : [
                0,
                1
            ],
            "name" : "48",
            "rotation" : [
                0.05795814469456673,
                -0.8628038763999939,
                0.028035946190357208,
                0.5014222264289856
            ],
            "scale" : [
                1.0013725757598877,
                1.0000076293945312,
                1.0013774633407593
            ]
        }
    ],
    "materials" : [
        {
            "doubleSided" : true,
            "emissiveFactor" : [
                0,
                0,
                0
            ],
            "name" : "Green Glass.002",
            "pbrMetallicRoughness" : {
                "baseColorFactor" : [
                    0,
                    0,
                    0,
                    1
                ],
                "metallicFactor" : 0.900355875492096,
                "roughnessFactor" : 0
            }
        },
        {
            "alphaMode" : "BLEND",
            "doubleSided" : true,
            "emissiveFactor" : [
                0,
                0,
                0
            ],
            "name" : "BLUEGlass.002",
            "pbrMetallicRoughness" : {
                "baseColorFactor" : [
                    0.11631722748279572,
                    0.6599875092506409,
                    1,
                    0.4530605673789978
                ],
                "metallicFactor" : 0.06423487514257431,
                "roughnessFactor" : 0
            }
        }
    ],
    "meshes" : [
        {
            "name" : "BLACK",
            "primitives" : [
                {
                    "attributes" : {
                        "POSITION" : 0,
                        "NORMAL" : 1,
                        "TEXCOORD_0" : 2
                    },
                    "indices" : 3,
                    "material" : 0
                }
            ]
        },
        {
            "name" : "BLUE",
            "primitives" : [
                {
                    "attributes" : {
                        "POSITION" : 4,
                        "NORMAL" : 5,
                        "TEXCOORD_0" : 6
                    },
                    "indices" : 7,
                    "material" : 1
                }
            ]
        }
    ],
    "accessors" : [
        {
            "bufferView" : 0,
            "componentType" : 5126,
            "count" : 38746,
            "max" : [
                6.127583980560303,
                20.09681510925293,
                14.126309394836426
            ],
            "min" : [
                -6.127583980560303,
                -20.09681510925293,
                -14.126309394836426
            ],
            "type" : "VEC3"
        },
        {
            "bufferView" : 1,
            "componentType" : 5126,
            "count" : 38746,
            "type" : "VEC3"
        },
        {
            "bufferView" : 2,
            "componentType" : 5126,
            "count" : 38746,
            "type" : "VEC2"
        },
        {
            "bufferView" : 3,
            "componentType" : 5123,
            "count" : 58344,
            "type" : "SCALAR"
        },
        {
            "bufferView" : 4,
            "componentType" : 5126,
            "count" : 9642,
            "max" : [
                5.929360389709473,
                13.655736923217773,
                8.956005096435547
            ],
            "min" : [
                -5.929360389709473,
                -13.655736923217773,
                -8.956005096435547
            ],
            "type" : "VEC3"
        },
        {
            "bufferView" : 5,
            "componentType" : 5126,
            "count" : 9642,
            "type" : "VEC3"
        },
        {
            "bufferView" : 6,
            "componentType" : 5126,
            "count" : 9642,
            "type" : "VEC2"
        },
        {
            "bufferView" : 7,
            "componentType" : 5123,
            "count" : 14592,
            "type" : "SCALAR"
        }
    ],
    "bufferViews" : [
        {
            "buffer" : 0,
            "byteLength" : 464952,
            "byteOffset" : 0
        },
        {
            "buffer" : 0,
            "byteLength" : 464952,
            "byteOffset" : 464952
        },
        {
            "buffer" : 0,
            "byteLength" : 309968,
            "byteOffset" : 929904
        },
        {
            "buffer" : 0,
            "byteLength" : 116688,
            "byteOffset" : 1239872
        },
        {
            "buffer" : 0,
            "byteLength" : 115704,
            "byteOffset" : 1356560
        },
        {
            "buffer" : 0,
            "byteLength" : 115704,
            "byteOffset" : 1472264
        },
        {
            "buffer" : 0,
            "byteLength" : 77136,
            "byteOffset" : 1587968
        },
        {
            "buffer" : 0,
            "byteLength" : 29184,
            "byteOffset" : 1665104
        }
    ],
    "buffers" : [
        {
            "byteLength" : 1694288,
            "uri" : "data:application/octet-stream;base64,"
        }
    ]
}
