{
    "asset" : {
        "generator" : "Khronos glTF Blender I/O v1.3.48",
        "version" : "2.0"
    },
    "scene" : 0,
    "scenes" : [
        {
            "name" : "Scene",
            "nodes" : [
                0
            ]
        }
    ],
    "nodes" : [
        {
            "mesh" : 0,
            "name" : "5-GREENBLUE"
        }
    ],
    "materials" : [
        {
            "alphaMode" : "BLEND",
            "doubleSided" : true,
            "emissiveFactor" : [
                0,
                0,
                0
            ],
            "name" : "GREENGLASS.002",
            "pbrMetallicRoughness" : {
                "baseColorFactor" : [
                    0.01938236504793167,
                    1,
                    0.7083759307861328,
                    0.5287545323371887
                ],
                "metallicFactor" : 0,
                "roughnessFactor" : 0
            }
        }
    ],
    "meshes" : [
        {
            "name" : "5-GREENBLUE",
            "primitives" : [
                {
                    "attributes" : {
                        "POSITION" : 0,
                        "NORMAL" : 1,
                        "TEXCOORD_0" : 2
                    },
                    "indices" : 3,
                    "material" : 0
                }
            ]
        }
    ],
    "accessors" : [
        {
            "bufferView" : 0,
            "componentType" : 5126,
            "count" : 18942,
            "max" : [
                16.882732391357422,
                19.874874114990234,
                1.5465781688690186
            ],
            "min" : [
                -16.882732391357422,
                -19.874874114990234,
                -1.5465781688690186
            ],
            "type" : "VEC3"
        },
        {
            "bufferView" : 1,
            "componentType" : 5126,
            "count" : 18942,
            "type" : "VEC3"
        },
        {
            "bufferView" : 2,
            "componentType" : 5126,
            "count" : 18942,
            "type" : "VEC2"
        },
        {
            "bufferView" : 3,
            "componentType" : 5123,
            "count" : 29424,
            "type" : "SCALAR"
        }
    ],
    "bufferViews" : [
        {
            "buffer" : 0,
            "byteLength" : 227304,
            "byteOffset" : 0
        },
        {
            "buffer" : 0,
            "byteLength" : 227304,
            "byteOffset" : 227304
        },
        {
            "buffer" : 0,
            "byteLength" : 151536,
            "byteOffset" : 454608
        },
        {
            "buffer" : 0,
            "byteLength" : 58848,
            "byteOffset" : 606144
        }
    ],
    "buffers" : [
        {
            "byteLength" : 664992,
            "uri" : "data:application/octet-stream;base64,"
        }
    ]
}
