{
    "asset" : {
        "generator" : "Khronos glTF Blender I/O v1.3.48",
        "version" : "2.0"
    },
    "scene" : 0,
    "scenes" : [
        {
            "name" : "Scene",
            "nodes" : [
                2
            ]
        }
    ],
    "nodes" : [
        {
            "mesh" : 0,
            "name" : "BLUE.1",
            "rotation" : [
                0,
                -0.3010883033275604,
                0,
                0.953596293926239
            ],
            "scale" : [
                1.0001299381256104,
                1,
                1.0001299381256104
            ],
            "translation" : [
                -3.556999683380127,
                20.635000228881836,
                0.5450000166893005
            ]
        },
        {
            "mesh" : 1,
            "name" : "GREENBLUE.1",
            "rotation" : [
                0,
                -0.3010883033275604,
                0,
                0.953596293926239
            ],
            "scale" : [
                1.0001299381256104,
                1,
                1.0001299381256104
            ],
            "translation" : [
                0.9309998750686646,
                -13.314000129699707,
                0.6340000033378601
            ]
        },
        {
            "children" : [
                0,
                1
            ],
            "name" : "54",
            "rotation" : [
                0,
                0.3010883033275604,
                0,
                0.953596293926239
            ],
            "scale" : [
                1.0001299381256104,
                1,
                1.0001299381256104
            ]
        }
    ],
    "materials" : [
        {
            "alphaMode" : "BLEND",
            "doubleSided" : true,
            "emissiveFactor" : [
                0,
                0,
                0
            ],
            "name" : "BLUEGlass.002",
            "pbrMetallicRoughness" : {
                "baseColorFactor" : [
                    0.11631722748279572,
                    0.6599875092506409,
                    1,
                    0.4530605673789978
                ],
                "metallicFactor" : 0.06423487514257431,
                "roughnessFactor" : 0
            }
        },
        {
            "alphaMode" : "BLEND",
            "doubleSided" : true,
            "emissiveFactor" : [
                0,
                0,
                0
            ],
            "name" : "light blue.002",
            "pbrMetallicRoughness" : {
                "baseColorFactor" : [
                    0.27586689591407776,
                    0.8879232406616211,
                    0.740842342376709,
                    0.5090035796165466
                ],
                "metallicFactor" : 0.07000000029802322,
                "roughnessFactor" : 0
            }
        }
    ],
    "meshes" : [
        {
            "name" : "BLUE.1",
            "primitives" : [
                {
                    "attributes" : {
                        "POSITION" : 0,
                        "NORMAL" : 1,
                        "TEXCOORD_0" : 2
                    },
                    "indices" : 3,
                    "material" : 0
                }
            ]
        },
        {
            "name" : "GREENBLUE.1",
            "primitives" : [
                {
                    "attributes" : {
                        "POSITION" : 4,
                        "NORMAL" : 5,
                        "TEXCOORD_0" : 6
                    },
                    "indices" : 7,
                    "material" : 1
                }
            ]
        }
    ],
    "accessors" : [
        {
            "bufferView" : 0,
            "componentType" : 5126,
            "count" : 49547,
            "max" : [
                26.318910598754883,
                31.66318130493164,
                17.932931900024414
            ],
            "min" : [
                -26.318910598754883,
                -31.66318130493164,
                -17.932931900024414
            ],
            "type" : "VEC3"
        },
        {
            "bufferView" : 1,
            "componentType" : 5126,
            "count" : 49547,
            "type" : "VEC3"
        },
        {
            "bufferView" : 2,
            "componentType" : 5126,
            "count" : 49547,
            "type" : "VEC2"
        },
        {
            "bufferView" : 3,
            "componentType" : 5123,
            "count" : 74400,
            "type" : "SCALAR"
        },
        {
            "bufferView" : 4,
            "componentType" : 5126,
            "count" : 9154,
            "max" : [
                21.613021850585938,
                14.14168643951416,
                15.86536979675293
            ],
            "min" : [
                -21.613021850585938,
                -14.14168643951416,
                -15.86536979675293
            ],
            "type" : "VEC3"
        },
        {
            "bufferView" : 5,
            "componentType" : 5126,
            "count" : 9154,
            "type" : "VEC3"
        },
        {
            "bufferView" : 6,
            "componentType" : 5126,
            "count" : 9154,
            "type" : "VEC2"
        },
        {
            "bufferView" : 7,
            "componentType" : 5123,
            "count" : 12564,
            "type" : "SCALAR"
        }
    ],
    "bufferViews" : [
        {
            "buffer" : 0,
            "byteLength" : 594564,
            "byteOffset" : 0
        },
        {
            "buffer" : 0,
            "byteLength" : 594564,
            "byteOffset" : 594564
        },
        {
            "buffer" : 0,
            "byteLength" : 396376,
            "byteOffset" : 1189128
        },
        {
            "buffer" : 0,
            "byteLength" : 148800,
            "byteOffset" : 1585504
        },
        {
            "buffer" : 0,
            "byteLength" : 109848,
            "byteOffset" : 1734304
        },
        {
            "buffer" : 0,
            "byteLength" : 109848,
            "byteOffset" : 1844152
        },
        {
            "buffer" : 0,
            "byteLength" : 73232,
            "byteOffset" : 1954000
        },
        {
            "buffer" : 0,
            "byteLength" : 25128,
            "byteOffset" : 2027232
        }
    ],
    "buffers" : [
        {
            "byteLength" : 2052360,
            "uri" : "data:application/octet-stream;base64,"
        }
    ]
}
