{
    "asset" : {
        "generator" : "Khronos glTF Blender I/O v1.3.48",
        "version" : "2.0"
    },
    "scene" : 0,
    "scenes" : [
        {
            "name" : "Scene",
            "nodes" : [
                2
            ]
        }
    ],
    "nodes" : [
        {
            "mesh" : 0,
            "name" : "LIGHTBLUE",
            "translation" : [
                12.652999877929688,
                -6.626999855041504,
                -0.052000001072883606
            ]
        },
        {
            "mesh" : 1,
            "name" : "YELLOWIRIDESCNET",
            "translation" : [
                4.577000141143799,
                -9.618000030517578,
                -0.003000000026077032
            ]
        },
        {
            "children" : [
                0,
                1
            ],
            "name" : "58",
            "rotation" : [
                0.045768044888973236,
                -0.6452925801277161,
                0.03877978026866913,
                0.7615767121315002
            ],
            "scale" : [
                1,
                0.9999971389770508,
                0.9999971389770508
            ],
            "translation" : [
                0,
                28.975845336914062,
                0
            ]
        }
    ],
    "materials" : [
        {
            "alphaMode" : "BLEND",
            "doubleSided" : true,
            "emissiveFactor" : [
                0,
                0,
                0
            ],
            "name" : "light blue.003",
            "pbrMetallicRoughness" : {
                "baseColorFactor" : [
                    0.24620139598846436,
                    0.8879231810569763,
                    0.7379105687141418,
                    0.5734163522720337
                ],
                "metallicFactor" : 0,
                "roughnessFactor" : 0
            }
        },
        {
            "alphaMode" : "BLEND",
            "doubleSided" : true,
            "emissiveFactor" : [
                0,
                0,
                0
            ],
            "name" : "Yellow.005",
            "pbrMetallicRoughness" : {
                "baseColorFactor" : [
                    0.9646862745285034,
                    1,
                    0,
                    0.8681139349937439
                ],
                "metallicFactor" : 0,
                "roughnessFactor" : 0
            }
        }
    ],
    "meshes" : [
        {
            "name" : "LIGHTBLUE",
            "primitives" : [
                {
                    "attributes" : {
                        "POSITION" : 0,
                        "NORMAL" : 1,
                        "TEXCOORD_0" : 2
                    },
                    "indices" : 3,
                    "material" : 0
                }
            ]
        },
        {
            "name" : "YELLOWIRIDESCNET",
            "primitives" : [
                {
                    "attributes" : {
                        "POSITION" : 4,
                        "NORMAL" : 5,
                        "TEXCOORD_0" : 6
                    },
                    "indices" : 7,
                    "material" : 1
                }
            ]
        }
    ],
    "accessors" : [
        {
            "bufferView" : 0,
            "componentType" : 5126,
            "count" : 32749,
            "max" : [
                10.01235294342041,
                13.94079303741455,
                0.5523829460144043
            ],
            "min" : [
                -10.01235294342041,
                -13.94079303741455,
                -0.5523829460144043
            ],
            "type" : "VEC3"
        },
        {
            "bufferView" : 1,
            "componentType" : 5126,
            "count" : 32749,
            "type" : "VEC3"
        },
        {
            "bufferView" : 2,
            "componentType" : 5126,
            "count" : 32749,
            "type" : "VEC2"
        },
        {
            "bufferView" : 3,
            "componentType" : 5123,
            "count" : 52476,
            "type" : "SCALAR"
        },
        {
            "bufferView" : 4,
            "componentType" : 5126,
            "count" : 50333,
            "max" : [
                16.324190139770508,
                14.98298168182373,
                0.5026832818984985
            ],
            "min" : [
                -16.324190139770508,
                -14.98298168182373,
                -0.5026832818984985
            ],
            "type" : "VEC3"
        },
        {
            "bufferView" : 5,
            "componentType" : 5126,
            "count" : 50333,
            "type" : "VEC3"
        },
        {
            "bufferView" : 6,
            "componentType" : 5126,
            "count" : 50333,
            "type" : "VEC2"
        },
        {
            "bufferView" : 7,
            "componentType" : 5123,
            "count" : 81108,
            "type" : "SCALAR"
        }
    ],
    "bufferViews" : [
        {
            "buffer" : 0,
            "byteLength" : 392988,
            "byteOffset" : 0
        },
        {
            "buffer" : 0,
            "byteLength" : 392988,
            "byteOffset" : 392988
        },
        {
            "buffer" : 0,
            "byteLength" : 261992,
            "byteOffset" : 785976
        },
        {
            "buffer" : 0,
            "byteLength" : 104952,
            "byteOffset" : 1047968
        },
        {
            "buffer" : 0,
            "byteLength" : 603996,
            "byteOffset" : 1152920
        },
        {
            "buffer" : 0,
            "byteLength" : 603996,
            "byteOffset" : 1756916
        },
        {
            "buffer" : 0,
            "byteLength" : 402664,
            "byteOffset" : 2360912
        },
        {
            "buffer" : 0,
            "byteLength" : 162216,
            "byteOffset" : 2763576
        }
    ],
    "buffers" : [
        {
            "byteLength" : 2925792,
            "uri" : "data:application/octet-stream;base64,"
        }
    ]
}
