{
    "asset" : {
        "generator" : "Khronos glTF Blender I/O v1.3.48",
        "version" : "2.0"
    },
    "scene" : 0,
    "scenes" : [
        {
            "name" : "Scene",
            "nodes" : [
                0
            ]
        }
    ],
    "nodes" : [
        {
            "mesh" : 0,
            "name" : "6BLACK"
        }
    ],
    "materials" : [
        {
            "alphaMode" : "BLEND",
            "doubleSided" : true,
            "emissiveFactor" : [
                0,
                0,
                0
            ],
            "name" : "Black.009",
            "pbrMetallicRoughness" : {
                "baseColorFactor" : [
                    0.018000002950429916,
                    0.01600000448524952,
                    0.0429999977350235,
                    0.6356939673423767
                ],
                "metallicFactor" : 0,
                "roughnessFactor" : 0.10199999809265137
            }
        }
    ],
    "meshes" : [
        {
            "name" : "6BLACK",
            "primitives" : [
                {
                    "attributes" : {
                        "POSITION" : 0,
                        "NORMAL" : 1,
                        "TEXCOORD_0" : 2
                    },
                    "indices" : 3,
                    "material" : 0
                }
            ]
        }
    ],
    "accessors" : [
        {
            "bufferView" : 0,
            "componentType" : 5126,
            "count" : 48192,
            "max" : [
                27.724987030029297,
                21.90287971496582,
                2.889406442642212
            ],
            "min" : [
                -27.724987030029297,
                -21.90287971496582,
                -2.889406442642212
            ],
            "type" : "VEC3"
        },
        {
            "bufferView" : 1,
            "componentType" : 5126,
            "count" : 48192,
            "type" : "VEC3"
        },
        {
            "bufferView" : 2,
            "componentType" : 5126,
            "count" : 48192,
            "type" : "VEC2"
        },
        {
            "bufferView" : 3,
            "componentType" : 5123,
            "count" : 72456,
            "type" : "SCALAR"
        }
    ],
    "bufferViews" : [
        {
            "buffer" : 0,
            "byteLength" : 578304,
            "byteOffset" : 0
        },
        {
            "buffer" : 0,
            "byteLength" : 578304,
            "byteOffset" : 578304
        },
        {
            "buffer" : 0,
            "byteLength" : 385536,
            "byteOffset" : 1156608
        },
        {
            "buffer" : 0,
            "byteLength" : 144912,
            "byteOffset" : 1542144
        }
    ],
    "buffers" : [
        {
            "byteLength" : 1687056,
            "uri" : "data:application/octet-stream;base64,"
        }
    ]
}
